# xmcd
#
# Track frame offsets: 
#        150
#        22426
#        42902
#        65478
#        79354
#        92780
#        117306
#        134558
#        146110
#        163362
#        185114
#        202366
#
# Disc length: 2904 seconds
#
# Revision: 0
# Processed by: cddbd v1.5.2PL0 Copyright (c) Steve Scherf et al.
# Submitted via: ExactAudioCopy v0.99pb5
#
DISCID=cb0b560c
DTITLE=Juke Jumpers - Villa Acuña, 1963
DYEAR=2009
DGENRE=Blues
TTITLE0=Pink Heart Days
TTITLE1=Luck In A Hurry
TTITLE2=Standin' At The Crossroads Again
TTITLE3=Dr. Feel-Good
TTITLE4=I Wonder What She Look Like Now
TTITLE5=Nowhere City Night
TTITLE6=In Walked You
TTITLE7=Go Ahead On
TTITLE8=Screen Door Jesus\\
TTITLE9=Red Light
TTITLE10=Villa Acuña, 1963
TTITLE11=Rock 'n' Roll Ruby
EXTD=
EXTT0=
EXTT1=
EXTT2=
EXTT3=
EXTT4=
EXTT5=
EXTT6=
EXTT7=
EXTT8=
EXTT9=
EXTT10=
EXTT11=
PLAYORDER=
